<?xml version="1.0" encoding="UTF-8"?>
<svg width="1480" height="720" viewBox="0 0 1480 720" fill="none" xmlns="http://www.w3.org/2000/svg">
  <defs>
    <filter id="shadow" x="-20%" y="-20%" width="140%" height="140%">
      <feDropShadow dx="0" dy="8" stdDeviation="10" flood-color="#0f172a" flood-opacity="0.12"/>
    </filter>
    <marker id="arrow" markerWidth="12" markerHeight="12" refX="10" refY="6" orient="auto" markerUnits="strokeWidth">
      <path d="M2 2 L10 6 L2 10 Z" fill="#64748b"/>
    </marker>
    <linearGradient id="inputGrad" x1="0" x2="1" y1="0" y2="1">
      <stop offset="0%" stop-color="#FEF3C7"/>
      <stop offset="100%" stop-color="#FDE68A"/>
    </linearGradient>
    <linearGradient id="rolesGrad" x1="0" x2="1" y1="0" y2="1">
      <stop offset="0%" stop-color="#DBEAFE"/>
      <stop offset="100%" stop-color="#93C5FD"/>
    </linearGradient>
    <linearGradient id="marketGrad" x1="0" x2="1" y1="0" y2="1">
      <stop offset="0%" stop-color="#DCFCE7"/>
      <stop offset="100%" stop-color="#86EFAC"/>
    </linearGradient>
    <linearGradient id="synthGrad" x1="0" x2="1" y1="0" y2="1">
      <stop offset="0%" stop-color="#EDE9FE"/>
      <stop offset="100%" stop-color="#C4B5FD"/>
    </linearGradient>
    <linearGradient id="reviewGrad" x1="0" x2="1" y1="0" y2="1">
      <stop offset="0%" stop-color="#FFF1F2"/>
      <stop offset="100%" stop-color="#FECDD3"/>
    </linearGradient>
    <linearGradient id="backlogGrad" x1="0" x2="1" y1="0" y2="1">
      <stop offset="0%" stop-color="#FFE4E6"/>
      <stop offset="100%" stop-color="#FDA4AF"/>
    </linearGradient>
    <style>
      .title { font: 700 34px Arial, sans-serif; fill: #0f172a; }
      .subtitle { font: 400 16px Arial, sans-serif; fill: #475569; }
      .card-title { font: 700 20px Arial, sans-serif; fill: #0f172a; }
      .card-sub { font: 400 14px Arial, sans-serif; fill: #334155; }
      .label { font: 700 12px Arial, sans-serif; fill: #64748b; letter-spacing: 0.08em; }
      .small { font: 400 12px Arial, sans-serif; fill: #475569; }
      .tiny { font: 400 12px Arial, sans-serif; fill: #64748b; }
      .pill { font: 700 11px Arial, sans-serif; fill: #334155; }
    </style>
  </defs>

  <rect width="1480" height="720" rx="0" fill="#F8FAFC"/>

  <text x="80" y="70" class="title">Hypothesis Stress Test</text>
  <text x="80" y="100" class="subtitle">Three analysis layers + Decision Review gate + human backlog decision</text>

  <g filter="url(#shadow)">
    <rect x="50" y="190" width="150" height="130" rx="22" fill="url(#inputGrad)" stroke="#F59E0B" stroke-width="2"/>
    <text x="72" y="228" class="label">INPUT</text>
    <text x="72" y="258" class="card-title">Hypothesis</text>
    <text x="72" y="282" class="card-sub">statement</text>
    <text x="72" y="302" class="card-sub">roles + context</text>
  </g>

  <g filter="url(#shadow)">
    <rect x="230" y="175" width="175" height="160" rx="24" fill="url(#rolesGrad)" stroke="#2563EB" stroke-width="2"/>
    <text x="255" y="215" class="label">LAYER 1</text>
    <text x="255" y="245" class="card-title">Roles</text>
    <text x="255" y="268" class="card-sub">facilitator</text>
    <text x="255" y="288" class="card-sub">internal perspectives</text>
    <text x="255" y="308" class="small">- value boundaries</text>
    <text x="255" y="324" class="small">- hidden assumptions</text>
  </g>

  <g filter="url(#shadow)">
    <rect x="435" y="175" width="175" height="160" rx="24" fill="url(#marketGrad)" stroke="#16A34A" stroke-width="2"/>
    <text x="460" y="215" class="label">LAYER 2</text>
    <text x="460" y="245" class="card-title">Market</text>
    <text x="460" y="272" class="card-sub">external reality</text>
    <text x="460" y="300" class="small">- evidence signals</text>
    <text x="460" y="318" class="small">- source references</text>
  </g>

  <g filter="url(#shadow)">
    <rect x="640" y="175" width="175" height="160" rx="24" fill="url(#synthGrad)" stroke="#7C3AED" stroke-width="2"/>
    <text x="665" y="215" class="label">LAYER 3</text>
    <text x="665" y="245" class="card-title">Synthesis</text>
    <text x="665" y="272" class="card-sub">signal collision</text>
    <text x="665" y="300" class="small">- contradictions</text>
    <text x="665" y="318" class="small">- reframe impact</text>
  </g>

  <g filter="url(#shadow)">
    <rect x="845" y="175" width="175" height="160" rx="24" fill="url(#reviewGrad)" stroke="#E11D48" stroke-width="2"/>
    <text x="865" y="215" class="label">GATE</text>
    <text x="865" y="245" class="card-title">Decision Review</text>
    <text x="865" y="272" class="card-sub">adversarial critique</text>
    <text x="865" y="300" class="small">- weak evidence</text>
    <text x="865" y="318" class="small">- cheap validation</text>
  </g>

  <g filter="url(#shadow)">
    <rect x="1050" y="175" width="175" height="160" rx="24" fill="url(#backlogGrad)" stroke="#BE123C" stroke-width="2"/>
    <text x="1075" y="215" class="label">HUMAN</text>
    <text x="1075" y="248" class="card-title">Backlog Decision</text>
    <text x="1075" y="285" class="card-sub">proceed / validate</text>
    <text x="1075" y="308" class="card-sub">research / reject</text>
  </g>

  <line x1="200" y1="255" x2="225" y2="255" stroke="#64748b" stroke-width="3" marker-end="url(#arrow)"/>
  <line x1="405" y1="255" x2="430" y2="255" stroke="#64748b" stroke-width="3" marker-end="url(#arrow)"/>
  <line x1="610" y1="255" x2="635" y2="255" stroke="#64748b" stroke-width="3" marker-end="url(#arrow)"/>
  <line x1="815" y1="255" x2="840" y2="255" stroke="#64748b" stroke-width="3" marker-end="url(#arrow)"/>
  <line x1="1020" y1="255" x2="1045" y2="255" stroke="#64748b" stroke-width="3" marker-end="url(#arrow)"/>

  <rect x="230" y="405" width="995" height="160" rx="26" fill="#FFFFFF" stroke="#CBD5E1" stroke-width="1.5"/>
  <text x="260" y="440" class="label">ARTIFACT FLOW</text>

  <rect x="260" y="465" width="130" height="42" rx="14" fill="#EFF6FF" stroke="#93C5FD"/>
  <text x="278" y="491" class="pill">role_outputs/*</text>

  <rect x="410" y="465" width="155" height="42" rx="14" fill="#F0FDF4" stroke="#86EFAC"/>
  <text x="428" y="491" class="pill">market_analysis.md</text>

  <rect x="585" y="465" width="120" height="42" rx="14" fill="#F5F3FF" stroke="#C4B5FD"/>
  <text x="600" y="491" class="pill">hypothesis_map</text>

  <rect x="725" y="465" width="145" height="42" rx="14" fill="#FFF1F2" stroke="#FDA4AF"/>
  <text x="740" y="491" class="pill">decision_review.md</text>

  <line x1="390" y1="486" x2="405" y2="486" stroke="#94A3B8" stroke-width="2" marker-end="url(#arrow)"/>
  <line x1="565" y1="486" x2="580" y2="486" stroke="#94A3B8" stroke-width="2" marker-end="url(#arrow)"/>
  <line x1="705" y1="486" x2="720" y2="486" stroke="#94A3B8" stroke-width="2" marker-end="url(#arrow)"/>

  <text x="260" y="535" class="tiny">Each phase produces structured artifacts. Decision Review challenges synthesis before backlog planning.</text>

  <g filter="url(#shadow)">
    <rect x="50" y="455" width="150" height="110" rx="22" fill="#FFFFFF" stroke="#CBD5E1" stroke-width="1.5"/>
    <text x="72" y="495" class="label">PRINCIPLE</text>
    <text x="72" y="525" class="card-sub">Challenge</text>
    <text x="72" y="545" class="card-sub">conclusions</text>
    <text x="72" y="565" class="card-sub">before building</text>
  </g>

  <rect x="230" y="600" width="995" height="50" rx="14" fill="#EEF2FF" stroke="#6366F1" stroke-width="1.5"/>
  <text x="250" y="632" class="tiny">Cline: .clinerules/ + .cline/skills/ + /run-hypothesis.md + Confluence MCP (local signals first)</text>

  <text x="80" y="690" class="tiny">Framework core is tool-agnostic / Cline is the primary implementation / Human-in-the-loop</text>
</svg>
