<?xml version="1.0" encoding="UTF-8"?>
<svg width="1100" height="620" viewBox="0 0 1100 620" xmlns="http://www.w3.org/2000/svg" role="img" aria-labelledby="title desc">
  <title id="title">Artifact Flow</title>
  <desc id="desc">Flow of files and artifacts through Roles, Market, and Synthesis layers.</desc>

  <defs>
    <style>
      .bg { fill: #ffffff; }
      .title { font: 700 28px Arial, sans-serif; fill: #111827; }
      .subtitle { font: 400 15px Arial, sans-serif; fill: #6b7280; }
      .layer-title { font: 700 16px Arial, sans-serif; fill: #111827; }
      .label { font: 500 14px Arial, sans-serif; fill: #111827; }
      .small { font: 400 12px Arial, sans-serif; fill: #4b5563; }
      .file { fill: #fff7ed; stroke: #fb923c; stroke-width: 1.5; rx: 12; }
      .role { fill: #eff6ff; stroke: #60a5fa; stroke-width: 1.5; rx: 14; }
      .market { fill: #f0fdf4; stroke: #22c55e; stroke-width: 1.5; rx: 14; }
      .synthesis { fill: #faf5ff; stroke: #a855f7; stroke-width: 1.5; rx: 14; }
      .output { fill: #fef2f2; stroke: #f87171; stroke-width: 1.5; rx: 12; }
      .marker { fill: #ecfdf5; stroke: #10b981; stroke-width: 1.5; rx: 10; }
      .arrow { stroke: #374151; stroke-width: 2; fill: none; marker-end: url(#arrowhead); }
      .soft-arrow { stroke: #9ca3af; stroke-width: 1.8; fill: none; marker-end: url(#arrowheadSoft); }
      .container { fill: #f9fafb; stroke: #e5e7eb; stroke-width: 1.2; rx: 20; }
    </style>
    <marker id="arrowhead" markerWidth="10" markerHeight="10" refX="8" refY="3" orient="auto">
      <path d="M0,0 L8,3 L0,6 Z" fill="#374151"/>
    </marker>
    <marker id="arrowheadSoft" markerWidth="10" markerHeight="10" refX="8" refY="3" orient="auto">
      <path d="M0,0 L8,3 L0,6 Z" fill="#9ca3af"/>
    </marker>
  </defs>

  <rect class="bg" x="0" y="0" width="1100" height="620"/>

  <text class="title" x="60" y="55">Artifact Flow</text>
  <text class="subtitle" x="60" y="82">How hypothesis data becomes structured decision artifacts</text>

  <!-- Input -->
  <rect class="file" x="60" y="145" width="210" height="90"/>
  <text class="label" x="90" y="180">hypothesis.md</text>
  <text class="small" x="90" y="205">statement + roles</text>
  <text class="small" x="90" y="222">+ research context</text>

  <!-- Roles layer container -->
  <rect class="container" x="330" y="115" width="270" height="190"/>
  <text class="layer-title" x="365" y="150">Roles Layer</text>
  <rect class="role" x="360" y="175" width="210" height="70"/>
  <text class="label" x="392" y="205">Internal analysis</text>
  <text class="small" x="392" y="226">role-based signals</text>

  <!-- Roles outputs -->
  <rect class="output" x="680" y="95" width="260" height="55"/>
  <text class="label" x="710" y="128">role_outputs/*</text>

  <rect class="output" x="680" y="165" width="260" height="55"/>
  <text class="label" x="710" y="198">hypothesis_summary.md</text>

  <rect class="marker" x="680" y="235" width="260" height="45"/>
  <text class="label" x="710" y="264">ready_for_synthesis.marker</text>

  <!-- Market layer -->
  <rect class="container" x="330" y="355" width="270" height="155"/>
  <text class="layer-title" x="365" y="390">Market Layer</text>
  <rect class="market" x="360" y="415" width="210" height="70"/>
  <text class="label" x="392" y="445">External validation</text>
  <text class="small" x="392" y="466">market signals</text>

  <!-- Market outputs -->
  <rect class="output" x="680" y="360" width="260" height="55"/>
  <text class="label" x="710" y="393">market_analysis.md</text>

  <rect class="marker" x="680" y="430" width="260" height="45"/>
  <text class="label" x="710" y="459">market_analysis_complete.marker</text>

  <!-- Synthesis layer -->
  <rect class="container" x="60" y="360" width="210" height="150"/>
  <text class="layer-title" x="95" y="395">Synthesis Layer</text>
  <rect class="synthesis" x="90" y="420" width="150" height="65"/>
  <text class="label" x="115" y="448">Conflict</text>
  <text class="small" x="112" y="468">comparison</text>

  <!-- Final outputs -->
  <rect class="output" x="60" y="545" width="230" height="45"/>
  <text class="label" x="90" y="574">hypothesis_map.md</text>

  <rect class="output" x="325" y="545" width="230" height="45"/>
  <text class="label" x="355" y="574">hypothesis_digest.txt</text>

  <rect class="marker" x="590" y="545" width="230" height="45"/>
  <text class="label" x="620" y="574">synthesis_complete.marker</text>

  <!-- Arrows -->
  <path class="arrow" d="M270 190 C300 190, 310 210, 330 210"/>
  <path class="arrow" d="M570 210 C610 175, 635 130, 680 122"/>
  <path class="soft-arrow" d="M570 220 C620 220, 635 192, 680 192"/>
  <path class="soft-arrow" d="M570 230 C620 245, 635 257, 680 257"/>

  <path class="arrow" d="M165 235 C165 305, 250 450, 330 450"/>
  <path class="arrow" d="M570 450 C620 430, 640 392, 680 388"/>
  <path class="soft-arrow" d="M570 462 C620 462, 640 452, 680 452"/>

  <!-- Inputs to synthesis -->
  <path class="soft-arrow" d="M680 122 C510 125, 300 340, 230 420"/>
  <path class="soft-arrow" d="M680 192 C510 195, 300 350, 230 435"/>
  <path class="soft-arrow" d="M680 388 C500 400, 300 435, 240 450"/>

  <!-- Synthesis to final outputs -->
  <path class="arrow" d="M165 485 C165 515, 165 525, 175 545"/>
  <path class="soft-arrow" d="M210 485 C260 520, 350 520, 420 545"/>
  <path class="soft-arrow" d="M240 455 C390 485, 560 515, 705 545"/>

  <!-- Legend -->
  <rect class="file" x="60" y="100" width="18" height="18"/>
  <text class="small" x="85" y="114">input</text>
  <rect class="output" x="140" y="100" width="18" height="18"/>
  <text class="small" x="165" y="114">artifact</text>
  <rect class="marker" x="230" y="100" width="18" height="18"/>
  <text class="small" x="255" y="114">completion marker</text>
</svg>
