<?xml version="1.0" encoding="UTF-8"?>
<svg width="1100" height="700" viewBox="0 0 1100 700" xmlns="http://www.w3.org/2000/svg" role="img" aria-labelledby="title desc">
  <title id="title">Artifact Flow</title>
  <desc id="desc">Flow of files through Roles, Market, Synthesis, and Decision Review.</desc>

  <defs>
    <style>
      .bg { fill: #ffffff; }
      .title { font: 700 28px Arial, sans-serif; fill: #111827; }
      .subtitle { font: 400 15px Arial, sans-serif; fill: #6b7280; }
      .layer-title { font: 700 16px Arial, sans-serif; fill: #111827; }
      .label { font: 500 14px Arial, sans-serif; fill: #111827; }
      .small { font: 400 12px Arial, sans-serif; fill: #4b5563; }
      .file { fill: #fff7ed; stroke: #fb923c; stroke-width: 1.5; rx: 12; }
      .role { fill: #eff6ff; stroke: #60a5fa; stroke-width: 1.5; rx: 14; }
      .market { fill: #f0fdf4; stroke: #22c55e; stroke-width: 1.5; rx: 14; }
      .synthesis { fill: #faf5ff; stroke: #a855f7; stroke-width: 1.5; rx: 14; }
      .review { fill: #fff1f2; stroke: #f43f5e; stroke-width: 1.5; rx: 14; }
      .output { fill: #fef2f2; stroke: #f87171; stroke-width: 1.5; rx: 12; }
      .marker { fill: #ecfdf5; stroke: #10b981; stroke-width: 1.5; rx: 10; }
      .human { fill: #ffe4e6; stroke: #e11d48; stroke-width: 1.5; rx: 12; }
      .arrow { stroke: #374151; stroke-width: 2; fill: none; marker-end: url(#arrowhead); }
      .soft-arrow { stroke: #9ca3af; stroke-width: 1.8; fill: none; marker-end: url(#arrowheadSoft); }
      .dash-arrow { stroke: #e11d48; stroke-width: 1.8; stroke-dasharray: 5 4; fill: none; marker-end: url(#arrowheadRed); }
      .container { fill: #f9fafb; stroke: #e5e7eb; stroke-width: 1.2; rx: 20; }
    </style>
    <marker id="arrowhead" markerWidth="10" markerHeight="10" refX="8" refY="3" orient="auto">
      <path d="M0,0 L8,3 L0,6 Z" fill="#374151"/>
    </marker>
    <marker id="arrowheadSoft" markerWidth="10" markerHeight="10" refX="8" refY="3" orient="auto">
      <path d="M0,0 L8,3 L0,6 Z" fill="#9ca3af"/>
    </marker>
    <marker id="arrowheadRed" markerWidth="10" markerHeight="10" refX="8" refY="3" orient="auto">
      <path d="M0,0 L8,3 L0,6 Z" fill="#e11d48"/>
    </marker>
  </defs>

  <rect class="bg" x="0" y="0" width="1100" height="700"/>

  <text class="title" x="60" y="55">Artifact Flow</text>
  <text class="subtitle" x="60" y="82">Cline skills produce structured artifacts through analysis layers and Decision Review</text>

  <!-- Input -->
  <rect class="file" x="60" y="145" width="210" height="90"/>
  <text class="label" x="90" y="180">hypothesis.md</text>
  <text class="small" x="90" y="205">statement + roles</text>
  <text class="small" x="90" y="222">+ research context</text>

  <!-- Roles layer -->
  <rect class="container" x="330" y="115" width="270" height="190"/>
  <text class="layer-title" x="365" y="150">Facilitator (skill)</text>
  <rect class="role" x="360" y="175" width="210" height="70"/>
  <text class="label" x="392" y="205">Internal analysis</text>
  <text class="small" x="392" y="226">role-based signals</text>

  <rect class="output" x="680" y="95" width="260" height="55"/>
  <text class="label" x="710" y="128">role_outputs/*</text>

  <rect class="output" x="680" y="155" width="260" height="45"/>
  <text class="label" x="710" y="183">hypothesis_summary.md</text>

  <rect class="output" x="680" y="210" width="260" height="45"/>
  <text class="label" x="710" y="238">validation_questions.md</text>

  <rect class="marker" x="680" y="265" width="260" height="45"/>
  <text class="label" x="710" y="293">ready_for_synthesis.marker</text>

  <!-- Market layer -->
  <rect class="container" x="330" y="340" width="270" height="155"/>
  <text class="layer-title" x="365" y="375">Market Layer (skill + Confluence MCP)</text>
  <rect class="market" x="360" y="400" width="210" height="70"/>
  <text class="label" x="392" y="430">External validation</text>
  <text class="small" x="392" y="451">market signals</text>

  <rect class="output" x="680" y="345" width="260" height="55"/>
  <text class="label" x="710" y="378">market_analysis.md</text>

  <rect class="marker" x="680" y="415" width="260" height="45"/>
  <text class="label" x="710" y="444">market_analysis_complete.marker</text>

  <!-- Synthesis layer -->
  <rect class="container" x="60" y="340" width="210" height="150"/>
  <text class="layer-title" x="95" y="375">Synthesis (skill)</text>
  <rect class="synthesis" x="90" y="400" width="150" height="65"/>
  <text class="label" x="108" y="428">Signal collision</text>
  <text class="small" x="105" y="448">cross-signal</text>

  <rect class="output" x="60" y="520" width="200" height="45"/>
  <text class="label" x="85" y="549">hypothesis_map.md</text>

  <rect class="output" x="280" y="520" width="200" height="45"/>
  <text class="label" x="305" y="549">hypothesis_digest.txt</text>

  <rect class="marker" x="500" y="520" width="200" height="45"/>
  <text class="label" x="520" y="549">synthesis_complete.marker</text>

  <!-- Decision Review -->
  <rect class="container" x="60" y="590" width="270" height="90"/>
  <text class="layer-title" x="95" y="620">Decision Review (skill)</text>
  <rect class="review" x="90" y="635" width="210" height="35"/>
  <text class="label" x="115" y="658">Adversarial critique</text>

  <rect class="output" x="380" y="600" width="220" height="45"/>
  <text class="label" x="405" y="629">decision_review.md</text>

  <rect class="marker" x="620" y="600" width="260" height="45"/>
  <text class="label" x="640" y="629">decision_review_complete.marker</text>

  <rect class="human" x="900" y="600" width="160" height="45"/>
  <text class="label" x="920" y="629">Backlog Decision</text>

  <!-- Arrows -->
  <path class="arrow" d="M270 190 C300 190, 310 210, 330 210"/>
  <path class="arrow" d="M570 210 C610 175, 635 130, 680 122"/>
  <path class="soft-arrow" d="M570 220 C620 220, 635 192, 680 192"/>
  <path class="soft-arrow" d="M570 230 C620 245, 635 257, 680 257"/>

  <path class="arrow" d="M165 235 C165 300, 250 430, 330 430"/>
  <path class="arrow" d="M570 430 C620 410, 640 377, 680 372"/>
  <path class="soft-arrow" d="M570 442 C620 442, 640 432, 680 432"/>

  <path class="soft-arrow" d="M680 122 C510 125, 300 320, 230 420"/>
  <path class="soft-arrow" d="M680 192 C510 195, 300 330, 230 435"/>
  <path class="soft-arrow" d="M680 372 C500 385, 300 420, 240 435"/>

  <path class="arrow" d="M165 490 C165 505, 165 515, 160 520"/>
  <path class="soft-arrow" d="M210 465 C280 500, 400 510, 480 520"/>
  <path class="soft-arrow" d="M240 435 C350 480, 480 510, 600 520"/>

  <path class="arrow" d="M195 625 C280 625, 350 622, 375 622"/>
  <path class="arrow" d="M600 622 C610 622, 615 622, 615 622"/>
  <path class="dash-arrow" d="M880 622 C890 622, 895 622, 895 622"/>

  <!-- Legend -->
  <rect class="file" x="60" y="100" width="18" height="18"/>
  <text class="small" x="85" y="114">input</text>
  <rect class="output" x="140" y="100" width="18" height="18"/>
  <text class="small" x="165" y="114">artifact</text>
  <rect class="marker" x="230" y="100" width="18" height="18"/>
  <text class="small" x="255" y="114">completion marker</text>
</svg>
