<?xml version="1.0" encoding="UTF-8"?>
<svg width="800" height="480" viewBox="0 0 800 480" fill="none" xmlns="http://www.w3.org/2000/svg">
  <defs>
    <filter id="shadow" x="-20%" y="-20%" width="140%" height="140%">
      <feDropShadow dx="0" dy="6" stdDeviation="8" flood-color="#0f172a" flood-opacity="0.10"/>
    </filter>
    <marker id="arrow" markerWidth="10" markerHeight="10" refX="8" refY="3" orient="auto">
      <path d="M0,0 L8,3 L0,6 Z" fill="#64748b"/>
    </marker>
    <style>
      .title { font: 700 24px Arial, sans-serif; fill: #0f172a; }
      .subtitle { font: 400 14px Arial, sans-serif; fill: #475569; }
      .label { font: 700 11px Arial, sans-serif; fill: #64748b; letter-spacing: 0.06em; }
      .card-title { font: 700 15px Arial, sans-serif; fill: #0f172a; }
      .card-sub { font: 400 12px Arial, sans-serif; fill: #334155; }
      .tiny { font: 400 11px Arial, sans-serif; fill: #64748b; }
    </style>
  </defs>

  <rect width="800" height="480" fill="#F8FAFC"/>
  <text x="50" y="42" class="title">Confluence MCP - Confluence Signals Channel</text>
  <text x="50" y="65" class="subtitle">Used by Market Layer after Local Evidence Discovery inventory</text>

  <g filter="url(#shadow)">
    <rect x="50" y="100" width="200" height="120" rx="18" fill="#DCFCE7" stroke="#16A34A" stroke-width="2"/>
    <text x="75" y="135" class="label">CONFLUENCE</text>
    <text x="75" y="162" class="card-title">Internal Wiki</text>
    <text x="75" y="184" class="card-sub">- discovery notes</text>
    <text x="75" y="202" class="card-sub">- past decisions</text>
  </g>

  <g filter="url(#shadow)">
    <rect x="300" y="115" width="120" height="90" rx="14" fill="#EEF2FF" stroke="#6366F1"/>
    <text x="325" y="155" class="card-title">MCP</text>
    <text x="318" y="178" class="card-sub">read-only</text>
  </g>

  <g filter="url(#shadow)">
    <rect x="470" y="100" width="200" height="120" rx="18" fill="#F0FDF4" stroke="#22C55E" stroke-width="2"/>
    <text x="495" y="135" class="label">MARKET LAYER</text>
    <text x="495" y="162" class="card-title">hypothesis-market</text>
    <text x="495" y="184" class="card-sub">Inventory first, then Confluence search</text>
    <text x="495" y="202" class="card-sub">then external (optional)</text>
  </g>

  <line x1="250" y1="160" x2="295" y2="160" stroke="#64748b" stroke-width="2" marker-end="url(#arrow)"/>
  <line x1="420" y1="160" x2="465" y2="160" stroke="#64748b" stroke-width="2" marker-end="url(#arrow)"/>

  <g filter="url(#shadow)">
    <rect x="50" y="280" width="620" height="150" rx="18" fill="#FFFFFF" stroke="#CBD5E1"/>
    <text x="75" y="310" class="label">market_analysis.md</text>
    <text x="75" y="340" class="card-sub">## Confluence Signals</text>
    <text x="95" y="362" class="tiny">- finding / signal: strong / source: Page Title</text>
    <text x="75" y="390" class="card-sub">## External Market Signals (secondary)</text>
    <text x="75" y="412" class="card-sub">## MCP Status / Confluence MCP: configured or not configured</text>
  </g>

  <line x1="570" y1="220" x2="360" y2="275" stroke="#64748b" stroke-width="2" marker-end="url(#arrow)"/>

  <g filter="url(#shadow)">
    <rect x="700" y="280" width="50" height="150" rx="10" fill="#FEF2F2" stroke="#F87171"/>
    <text x="708" y="340" class="tiny" transform="rotate(90 708,340)">missing local evidence</text>
  </g>

  <text x="50" y="460" class="tiny">Without Confluence MCP: keep KB inventory signals, mark Confluence channel missing, do not fabricate internal knowledge.</text>
</svg>
