<?xml version="1.0" encoding="UTF-8"?>
<svg width="900" height="520" viewBox="0 0 900 520" fill="none" xmlns="http://www.w3.org/2000/svg">
  <defs>
    <filter id="shadow" x="-20%" y="-20%" width="140%" height="140%">
      <feDropShadow dx="0" dy="6" stdDeviation="8" flood-color="#0f172a" flood-opacity="0.10"/>
    </filter>
    <marker id="arrow" markerWidth="10" markerHeight="10" refX="8" refY="3" orient="auto">
      <path d="M0,0 L8,3 L0,6 Z" fill="#64748b"/>
    </marker>
    <style>
      .title { font: 700 26px Arial, sans-serif; fill: #0f172a; }
      .subtitle { font: 400 14px Arial, sans-serif; fill: #475569; }
      .label { font: 700 11px Arial, sans-serif; fill: #64748b; letter-spacing: 0.06em; }
      .card-title { font: 700 16px Arial, sans-serif; fill: #0f172a; }
      .card-sub { font: 400 13px Arial, sans-serif; fill: #334155; }
      .tiny { font: 400 11px Arial, sans-serif; fill: #64748b; }
    </style>
  </defs>

  <rect width="900" height="520" fill="#F8FAFC"/>
  <text x="50" y="45" class="title">Cline Execution Flow</text>
  <text x="50" y="68" class="subtitle">Rules, skills, workflows, and Confluence MCP</text>

  <g filter="url(#shadow)">
    <rect x="50" y="110" width="120" height="70" rx="16" fill="#FFFFFF" stroke="#CBD5E1" stroke-width="1.5"/>
    <text x="70" y="140" class="label">USER</text>
    <text x="70" y="162" class="card-sub">PM in VS Code</text>
  </g>

  <g filter="url(#shadow)">
    <rect x="220" y="95" width="160" height="100" rx="18" fill="#EEF2FF" stroke="#6366F1" stroke-width="2"/>
    <text x="245" y="125" class="label">CLINE</text>
    <text x="245" y="150" class="card-title">VS Code Agent</text>
    <text x="245" y="172" class="card-sub">Plan / Act mode</text>
  </g>

  <g filter="url(#shadow)">
    <rect x="430" y="95" width="150" height="45" rx="12" fill="#FFFFFF" stroke="#94A3B8"/>
    <text x="450" y="124" class="card-sub">.clinerules/</text>
  </g>

  <g filter="url(#shadow)">
    <rect x="430" y="150" width="150" height="45" rx="12" fill="#FFFFFF" stroke="#94A3B8"/>
    <text x="450" y="179" class="card-sub">.cline/skills/</text>
  </g>

  <g filter="url(#shadow)">
    <rect x="600" y="95" width="170" height="45" rx="12" fill="#FEF3C7" stroke="#F59E0B"/>
    <text x="620" y="124" class="card-sub">/run-hypothesis.md</text>
  </g>

  <g filter="url(#shadow)">
    <rect x="600" y="150" width="170" height="45" rx="12" fill="#DCFCE7" stroke="#16A34A"/>
    <text x="620" y="179" class="card-sub">Confluence MCP</text>
  </g>

  <line x1="170" y1="145" x2="215" y2="145" stroke="#64748b" stroke-width="2" marker-end="url(#arrow)"/>
  <line x1="380" y1="130" x2="425" y2="118" stroke="#64748b" stroke-width="2" marker-end="url(#arrow)"/>
  <line x1="380" y1="160" x2="425" y2="172" stroke="#64748b" stroke-width="2" marker-end="url(#arrow)"/>
  <line x1="580" y1="118" x2="595" y2="118" stroke="#64748b" stroke-width="2" marker-end="url(#arrow)"/>
  <line x1="505" y1="195" x2="505" y2="230" stroke="#64748b" stroke-width="2" marker-end="url(#arrow)"/>

  <text x="50" y="250" class="label">LAYER PIPELINE</text>

  <g filter="url(#shadow)">
    <rect x="50" y="270" width="140" height="80" rx="14" fill="#DBEAFE" stroke="#2563EB"/>
    <text x="70" y="300" class="card-title">Validate</text>
    <text x="70" y="322" class="card-sub">input skill</text>
  </g>

  <g filter="url(#shadow)">
    <rect x="220" y="270" width="140" height="80" rx="14" fill="#DBEAFE" stroke="#2563EB"/>
    <text x="240" y="300" class="card-title">Roles</text>
    <text x="240" y="322" class="card-sub">layer skill</text>
  </g>

  <g filter="url(#shadow)">
    <rect x="390" y="270" width="140" height="80" rx="14" fill="#DCFCE7" stroke="#16A34A"/>
    <text x="410" y="300" class="card-title">Market</text>
    <text x="410" y="322" class="card-sub">+ Confluence</text>
  </g>

  <g filter="url(#shadow)">
    <rect x="560" y="270" width="140" height="80" rx="14" fill="#EDE9FE" stroke="#7C3AED"/>
    <text x="580" y="300" class="card-title">Synthesis</text>
    <text x="580" y="322" class="card-sub">layer skill</text>
  </g>

  <g filter="url(#shadow)">
    <rect x="730" y="270" width="120" height="80" rx="14" fill="#FFE4E6" stroke="#E11D48"/>
    <text x="750" y="300" class="card-title">Digest</text>
    <text x="750" y="322" class="card-sub">decision</text>
  </g>

  <line x1="190" y1="310" x2="215" y2="310" stroke="#64748b" stroke-width="2" marker-end="url(#arrow)"/>
  <line x1="360" y1="310" x2="385" y2="310" stroke="#64748b" stroke-width="2" marker-end="url(#arrow)"/>
  <line x1="530" y1="310" x2="555" y2="310" stroke="#64748b" stroke-width="2" marker-end="url(#arrow)"/>
  <line x1="700" y1="310" x2="725" y2="310" stroke="#64748b" stroke-width="2" marker-end="url(#arrow)"/>

  <g filter="url(#shadow)">
    <rect x="50" y="400" width="800" height="90" rx="18" fill="#FFFFFF" stroke="#CBD5E1"/>
    <text x="75" y="430" class="label">RUN_DIR / OUTPUTS</text>
    <text x="75" y="458" class="card-sub">hypothesis.md -&gt; role_outputs/* -&gt; market_analysis.md -&gt; hypothesis_map.md -&gt; hypothesis_digest.txt</text>
    <text x="75" y="478" class="tiny">Human approves file writes and MCP tool calls at each step</text>
  </g>

  <line x1="685" y1="172" x2="685" y2="265" stroke="#16A34A" stroke-width="1.5" stroke-dasharray="4 4" marker-end="url(#arrow)"/>
</svg>
